# xmcd CD database file
#
# Track frame offsets:
#	150
#	22857
#	44357
#	67055
#
# Disc length: 1177 seconds
#
# Revision: 0
# Processed by: cddbd v1.5.1PL0 Copyright (c) Steve Scherf et al.
# Submitted via: CDex 1.51
#
DISCID=2d049704
DTITLE=井上 昌巳 - 僕たちの片想い
DYEAR=1996
DGENRE=Pop
TTITLE0=僕たちの片想い
TTITLE1=歩きたい
TTITLE2=僕たちの片想い (オリジナルカラオケ)
TTITLE3=歩きたい (オリジナルカラオケ)
EXTD=YEAR: 96/02/28
EXTT0=
EXTT1=
EXTT2=
EXTT3=
PLAYORDER=
